#define down_width 13
#define down_height 13
static unsigned char down_bits[] = {
   0xe0, 0x00, 0xe0, 0x00, 0xe0, 0x00, 0xe0, 0x00, 0xe0, 0x00, 0xe0, 0x00,
   0xff, 0x1f, 0xfe, 0x0f, 0xfc, 0x07, 0xf8, 0x03, 0xf0, 0x01, 0xe0, 0x00,
   0x40, 0x00};
